<mxfile modified="2022-05-02T20:16:08.062Z" host="app.diagrams.net" agent="5.0 (Windows NT 10.0; Win64; x64) AppleWebKit/537.36 (KHTML, like Gecko) Chrome/100.0.4896.127 Safari/537.36 Edg/100.0.1185.50" etag="g-gURtGQ_cjWF8fUAiA3" compressed="false" version="17.5.0" type="google">
  <diagram id="evw5WH1j9mFkovqaYFB8" name="Qualities/Addressed/Security">
    <mxGraphModel grid="1" page="1" gridSize="10" guides="1" tooltips="1" connect="1" arrows="1" fold="1" pageScale="1" pageWidth="827" pageHeight="1169" math="0" shadow="0">
      <root>
        <mxCell id="1ndiHduiQBtdsoUAymeR-0" />
        <mxCell id="9zR-uWNmfOv_NjAGNr8q-0" value="Diagram" parent="1ndiHduiQBtdsoUAymeR-0" />
        <UserObject label="Integrity" id="j2zxyaLkbqn8TJfqwBMs-1">
          <mxCell style="strokeColor=#bac8d3;html=1;fontColor=#2f5b7c;fontSize=12;align=left;fillColor=#E6E6E6;" vertex="1" parent="9zR-uWNmfOv_NjAGNr8q-0">
            <mxGeometry x="140" y="300" width="540" height="20" as="geometry" />
          </mxCell>
        </UserObject>
        <UserObject label="Quality" id="j2zxyaLkbqn8TJfqwBMs-66">
          <mxCell style="strokeColor=#bac8d3;html=1;fontColor=#2f5b7c;fontSize=12;align=left;horizontal=0;fillColor=#E6E6E6;" vertex="1" parent="9zR-uWNmfOv_NjAGNr8q-0">
            <mxGeometry x="140" y="180" width="20" height="100" as="geometry" />
          </mxCell>
        </UserObject>
        <UserObject label="Feature/Control" id="j2zxyaLkbqn8TJfqwBMs-69">
          <mxCell style="strokeColor=#bac8d3;html=1;fontColor=#2f5b7c;fontSize=12;align=left;horizontal=0;fontStyle=2" vertex="1" parent="9zR-uWNmfOv_NjAGNr8q-0">
            <mxGeometry x="160" y="180" width="20" height="100" as="geometry" />
          </mxCell>
        </UserObject>
        <UserObject label="All HTTP comms is protected by TLS 1.3" id="j2zxyaLkbqn8TJfqwBMs-103">
          <mxCell style="strokeColor=#bac8d3;html=1;fontColor=#2f5b7c;fontSize=11;align=left;fontStyle=2" vertex="1" parent="9zR-uWNmfOv_NjAGNr8q-0">
            <mxGeometry x="160" y="320" width="520" height="20" as="geometry" />
          </mxCell>
        </UserObject>
        <UserObject label="All cookies flagged as secure &amp;amp; httponly" id="j2zxyaLkbqn8TJfqwBMs-104">
          <mxCell style="strokeColor=#bac8d3;html=1;fontColor=#2f5b7c;fontSize=11;align=left;fontStyle=2" vertex="1" parent="9zR-uWNmfOv_NjAGNr8q-0">
            <mxGeometry x="160" y="360" width="520" height="20" as="geometry" />
          </mxCell>
        </UserObject>
        <UserObject label="Group" id="j2zxyaLkbqn8TJfqwBMs-65">
          <mxCell style="strokeColor=#666666;html=1;fontColor=#333333;fontSize=12;align=left;horizontal=0;fillColor=#f5f5f5;" vertex="1" parent="9zR-uWNmfOv_NjAGNr8q-0">
            <mxGeometry x="120" y="180" width="20" height="100" as="geometry" />
          </mxCell>
        </UserObject>
        <UserObject label="ISO-25010/Security" id="j2zxyaLkbqn8TJfqwBMs-138">
          <mxCell style="strokeColor=#666666;html=1;fontColor=#333333;fontSize=12;align=left;fontStyle=1;fillColor=#CCCCCC;" vertex="1" parent="9zR-uWNmfOv_NjAGNr8q-0">
            <mxGeometry x="120" y="280" width="560" height="20" as="geometry" />
          </mxCell>
        </UserObject>
        <UserObject label="HTTP redirects to HTTPS" id="mdwRS8ayNmcQreqDiehK-2">
          <mxCell style="strokeColor=#bac8d3;html=1;fontColor=#2f5b7c;fontSize=11;align=left;fontStyle=2" vertex="1" parent="9zR-uWNmfOv_NjAGNr8q-0">
            <mxGeometry x="160" y="400" width="520" height="20" as="geometry" />
          </mxCell>
        </UserObject>
        <UserObject label="Developers cannot access Production Data" id="mdwRS8ayNmcQreqDiehK-8">
          <mxCell style="strokeColor=#bac8d3;html=1;fontColor=#2f5b7c;fontSize=11;align=left;fontStyle=2" vertex="1" parent="9zR-uWNmfOv_NjAGNr8q-0">
            <mxGeometry x="160" y="440" width="520" height="20" as="geometry" />
          </mxCell>
        </UserObject>
        <UserObject label="All Dev &amp;amp; Test work done with Dummy data." id="mdwRS8ayNmcQreqDiehK-9">
          <mxCell style="strokeColor=#bac8d3;html=1;fontColor=#2f5b7c;fontSize=11;align=left;fontStyle=2" vertex="1" parent="9zR-uWNmfOv_NjAGNr8q-0">
            <mxGeometry x="160" y="480" width="520" height="20" as="geometry" />
          </mxCell>
        </UserObject>
        <UserObject label="Backup/Restore operations are automated." id="mdwRS8ayNmcQreqDiehK-10">
          <mxCell style="strokeColor=#bac8d3;html=1;fontColor=#2f5b7c;fontSize=11;align=left;fontStyle=2" vertex="1" parent="9zR-uWNmfOv_NjAGNr8q-0">
            <mxGeometry x="160" y="520" width="520" height="20" as="geometry" />
          </mxCell>
        </UserObject>
        <UserObject label="Backups are encrypted." id="mdwRS8ayNmcQreqDiehK-17">
          <mxCell style="strokeColor=#bac8d3;html=1;fontColor=#2f5b7c;fontSize=11;align=left;fontStyle=2" vertex="1" parent="9zR-uWNmfOv_NjAGNr8q-0">
            <mxGeometry x="160" y="600" width="520" height="20" as="geometry" />
          </mxCell>
        </UserObject>
        <UserObject label="Databases are encrypted." id="mdwRS8ayNmcQreqDiehK-18">
          <mxCell style="strokeColor=#bac8d3;html=1;fontColor=#2f5b7c;fontSize=11;align=left;fontStyle=2" vertex="1" parent="9zR-uWNmfOv_NjAGNr8q-0">
            <mxGeometry x="160" y="560" width="520" height="20" as="geometry" />
          </mxCell>
        </UserObject>
        <UserObject label="Infrastructure scanned for weaknesses" id="lfz_-_7x1Mit3-YCTM06-0">
          <mxCell style="strokeColor=#bac8d3;html=1;fontColor=#2f5b7c;fontSize=11;align=left;fontStyle=2" vertex="1" parent="9zR-uWNmfOv_NjAGNr8q-0">
            <mxGeometry x="160" y="680" width="520" height="20" as="geometry" />
          </mxCell>
        </UserObject>
        <UserObject label="Bad actors can intercept and modify your actions." id="uHeQ705KKkx8hOiADTU1-0">
          <mxCell style="strokeColor=#bac8d3;html=1;fontColor=#2f5b7c;fontSize=11;align=left;fontStyle=2" vertex="1" parent="9zR-uWNmfOv_NjAGNr8q-0">
            <mxGeometry x="180" y="340" width="500" height="20" as="geometry" />
          </mxCell>
        </UserObject>
        <UserObject label="Security tokens can be hijacked on cleartext channels." id="uHeQ705KKkx8hOiADTU1-1">
          <mxCell style="strokeColor=#bac8d3;html=1;fontColor=#2f5b7c;fontSize=11;align=left;fontStyle=2" vertex="1" parent="9zR-uWNmfOv_NjAGNr8q-0">
            <mxGeometry x="180" y="380" width="500" height="20" as="geometry" />
          </mxCell>
        </UserObject>
        <UserObject label="Insecure communication, leads to above issues." id="uHeQ705KKkx8hOiADTU1-2">
          <mxCell style="strokeColor=#bac8d3;html=1;fontColor=#2f5b7c;fontSize=11;align=left;fontStyle=2" vertex="1" parent="9zR-uWNmfOv_NjAGNr8q-0">
            <mxGeometry x="180" y="420" width="500" height="20" as="geometry" />
          </mxCell>
        </UserObject>
        <UserObject label="Developers are human. Humans make mistakes." id="uHeQ705KKkx8hOiADTU1-3">
          <mxCell style="strokeColor=#bac8d3;html=1;fontColor=#2f5b7c;fontSize=11;align=left;fontStyle=2" vertex="1" parent="9zR-uWNmfOv_NjAGNr8q-0">
            <mxGeometry x="180" y="460" width="500" height="20" as="geometry" />
          </mxCell>
        </UserObject>
        <UserObject label="Real data may not have all eventual issues (yet)." id="uHeQ705KKkx8hOiADTU1-4">
          <mxCell style="strokeColor=#bac8d3;html=1;fontColor=#2f5b7c;fontSize=11;align=left;fontStyle=2" vertex="1" parent="9zR-uWNmfOv_NjAGNr8q-0">
            <mxGeometry x="180" y="500" width="500" height="20" as="geometry" />
          </mxCell>
        </UserObject>
        <UserObject label="Humans must not have the keys to the data." id="uHeQ705KKkx8hOiADTU1-5">
          <mxCell style="strokeColor=#bac8d3;html=1;fontColor=#2f5b7c;fontSize=11;align=left;fontStyle=2" vertex="1" parent="9zR-uWNmfOv_NjAGNr8q-0">
            <mxGeometry x="180" y="540" width="500" height="20" as="geometry" />
          </mxCell>
        </UserObject>
        <UserObject label="if DBs are taken offsite, they should be unreadable." id="uHeQ705KKkx8hOiADTU1-7">
          <mxCell style="strokeColor=#bac8d3;html=1;fontColor=#2f5b7c;fontSize=11;align=left;fontStyle=2" vertex="1" parent="9zR-uWNmfOv_NjAGNr8q-0">
            <mxGeometry x="180" y="580" width="500" height="20" as="geometry" />
          </mxCell>
        </UserObject>
        <UserObject label="Same for DB Backups." id="uHeQ705KKkx8hOiADTU1-8">
          <mxCell style="strokeColor=#bac8d3;html=1;fontColor=#2f5b7c;fontSize=11;align=left;fontStyle=2" vertex="1" parent="9zR-uWNmfOv_NjAGNr8q-0">
            <mxGeometry x="180" y="620" width="500" height="20" as="geometry" />
          </mxCell>
        </UserObject>
        <UserObject label="Each deployment can introduce weaknesses. Check." id="uHeQ705KKkx8hOiADTU1-9">
          <mxCell style="strokeColor=#bac8d3;html=1;fontColor=#2f5b7c;fontSize=11;align=left;fontStyle=2" vertex="1" parent="9zR-uWNmfOv_NjAGNr8q-0">
            <mxGeometry x="180" y="700" width="500" height="20" as="geometry" />
          </mxCell>
        </UserObject>
        <UserObject label="Long Term Backups are encrypted." id="Qq5znrOMkNYeY_ryEtN2-0">
          <mxCell style="strokeColor=#bac8d3;html=1;fontColor=#2f5b7c;fontSize=11;align=left;fontStyle=2" vertex="1" parent="9zR-uWNmfOv_NjAGNr8q-0">
            <mxGeometry x="160" y="640" width="520" height="20" as="geometry" />
          </mxCell>
        </UserObject>
        <UserObject label="Same for DB Backups." id="Qq5znrOMkNYeY_ryEtN2-1">
          <mxCell style="strokeColor=#bac8d3;html=1;fontColor=#2f5b7c;fontSize=11;align=left;fontStyle=2" vertex="1" parent="9zR-uWNmfOv_NjAGNr8q-0">
            <mxGeometry x="180" y="660" width="500" height="20" as="geometry" />
          </mxCell>
        </UserObject>
        <UserObject label="Issue/Control" id="noNwuY170f4Fh_IDlCJd-0">
          <mxCell style="strokeColor=#bac8d3;html=1;fontColor=#2f5b7c;fontSize=12;align=left;horizontal=0;fontStyle=2" vertex="1" parent="9zR-uWNmfOv_NjAGNr8q-0">
            <mxGeometry x="180" y="180" width="20" height="100" as="geometry" />
          </mxCell>
        </UserObject>
        <UserObject label="Note" id="xVS5ICn7Gh5AslZ5_-2x-0">
          <mxCell style="strokeColor=#bac8d3;html=1;fontColor=#2f5b7c;fontSize=12;align=left;horizontal=0;fontStyle=2" vertex="1" parent="9zR-uWNmfOv_NjAGNr8q-0">
            <mxGeometry x="200" y="180" width="20" height="100" as="geometry" />
          </mxCell>
        </UserObject>
        <UserObject label="Infrastructure" id="PB51dKFTZky7eTfzRtoL-0">
          <mxCell style="strokeColor=#bac8d3;html=1;fontColor=#2f5b7c;fontSize=12;align=left;horizontal=0;fontStyle=2" vertex="1" parent="9zR-uWNmfOv_NjAGNr8q-0">
            <mxGeometry x="600" y="180" width="20" height="100" as="geometry" />
          </mxCell>
        </UserObject>
        <UserObject label="Info Svc" id="PB51dKFTZky7eTfzRtoL-1">
          <mxCell style="strokeColor=#bac8d3;html=1;fontColor=#2f5b7c;fontSize=12;align=left;horizontal=0;fontStyle=2" vertex="1" parent="9zR-uWNmfOv_NjAGNr8q-0">
            <mxGeometry x="640" y="180" width="20" height="100" as="geometry" />
          </mxCell>
        </UserObject>
        <UserObject label="Info Svc Client" id="PB51dKFTZky7eTfzRtoL-2">
          <mxCell style="strokeColor=#bac8d3;html=1;fontColor=#2f5b7c;fontSize=12;align=left;horizontal=0;fontStyle=2" vertex="1" parent="9zR-uWNmfOv_NjAGNr8q-0">
            <mxGeometry x="660" y="180" width="20" height="100" as="geometry" />
          </mxCell>
        </UserObject>
        <UserObject label="Delivery Service" id="PB51dKFTZky7eTfzRtoL-3">
          <mxCell style="strokeColor=#bac8d3;html=1;fontColor=#2f5b7c;fontSize=12;align=left;horizontal=0;fontStyle=2" vertex="1" parent="9zR-uWNmfOv_NjAGNr8q-0">
            <mxGeometry x="620" y="180" width="20" height="100" as="geometry" />
          </mxCell>
        </UserObject>
        <mxCell id="PB51dKFTZky7eTfzRtoL-4" value="&lt;b&gt;X&lt;/b&gt;" style="text;html=1;strokeColor=#666666;fillColor=#f5f5f5;align=center;verticalAlign=middle;whiteSpace=wrap;rounded=0;fontSize=12;fontColor=#333333;" vertex="1" parent="9zR-uWNmfOv_NjAGNr8q-0">
          <mxGeometry x="640" y="320" width="20" height="20" as="geometry" />
        </mxCell>
        <mxCell id="PB51dKFTZky7eTfzRtoL-5" value="&lt;b&gt;X&lt;/b&gt;" style="text;html=1;strokeColor=#666666;fillColor=#f5f5f5;align=center;verticalAlign=middle;whiteSpace=wrap;rounded=0;fontSize=12;fontColor=#333333;" vertex="1" parent="9zR-uWNmfOv_NjAGNr8q-0">
          <mxGeometry x="640" y="360" width="20" height="20" as="geometry" />
        </mxCell>
        <mxCell id="PB51dKFTZky7eTfzRtoL-6" value="&lt;b&gt;X&lt;/b&gt;" style="text;html=1;strokeColor=#666666;fillColor=#f5f5f5;align=center;verticalAlign=middle;whiteSpace=wrap;rounded=0;fontSize=12;fontColor=#333333;" vertex="1" parent="9zR-uWNmfOv_NjAGNr8q-0">
          <mxGeometry x="640" y="400" width="20" height="20" as="geometry" />
        </mxCell>
        <mxCell id="PB51dKFTZky7eTfzRtoL-7" value="&lt;b&gt;X&lt;/b&gt;" style="text;html=1;strokeColor=#666666;fillColor=#f5f5f5;align=center;verticalAlign=middle;whiteSpace=wrap;rounded=0;fontSize=12;fontColor=#333333;" vertex="1" parent="9zR-uWNmfOv_NjAGNr8q-0">
          <mxGeometry x="580" y="440" width="20" height="20" as="geometry" />
        </mxCell>
        <mxCell id="PB51dKFTZky7eTfzRtoL-8" value="&lt;b&gt;X&lt;/b&gt;" style="text;html=1;strokeColor=#666666;fillColor=#f5f5f5;align=center;verticalAlign=middle;whiteSpace=wrap;rounded=0;fontSize=12;fontColor=#333333;" vertex="1" parent="9zR-uWNmfOv_NjAGNr8q-0">
          <mxGeometry x="580" y="480" width="20" height="20" as="geometry" />
        </mxCell>
        <mxCell id="PB51dKFTZky7eTfzRtoL-9" value="&lt;b&gt;X&lt;/b&gt;" style="text;html=1;strokeColor=#666666;fillColor=#f5f5f5;align=center;verticalAlign=middle;whiteSpace=wrap;rounded=0;fontSize=12;fontColor=#333333;" vertex="1" parent="9zR-uWNmfOv_NjAGNr8q-0">
          <mxGeometry x="600" y="520" width="20" height="20" as="geometry" />
        </mxCell>
        <mxCell id="PB51dKFTZky7eTfzRtoL-10" value="&lt;b&gt;X&lt;/b&gt;" style="text;html=1;strokeColor=#666666;fillColor=#f5f5f5;align=center;verticalAlign=middle;whiteSpace=wrap;rounded=0;fontSize=12;fontColor=#333333;" vertex="1" parent="9zR-uWNmfOv_NjAGNr8q-0">
          <mxGeometry x="600" y="560" width="20" height="20" as="geometry" />
        </mxCell>
        <mxCell id="PB51dKFTZky7eTfzRtoL-12" value="&lt;b&gt;X&lt;/b&gt;" style="text;html=1;strokeColor=#666666;fillColor=#f5f5f5;align=center;verticalAlign=middle;whiteSpace=wrap;rounded=0;fontSize=12;fontColor=#333333;" vertex="1" parent="9zR-uWNmfOv_NjAGNr8q-0">
          <mxGeometry x="600" y="600" width="20" height="20" as="geometry" />
        </mxCell>
        <mxCell id="PB51dKFTZky7eTfzRtoL-13" value="&lt;b&gt;X&lt;/b&gt;" style="text;html=1;strokeColor=#666666;fillColor=#f5f5f5;align=center;verticalAlign=middle;whiteSpace=wrap;rounded=0;fontSize=12;fontColor=#333333;" vertex="1" parent="9zR-uWNmfOv_NjAGNr8q-0">
          <mxGeometry x="600" y="640" width="20" height="20" as="geometry" />
        </mxCell>
        <mxCell id="PB51dKFTZky7eTfzRtoL-14" value="&lt;b&gt;X&lt;/b&gt;" style="text;html=1;strokeColor=#666666;fillColor=#f5f5f5;align=center;verticalAlign=middle;whiteSpace=wrap;rounded=0;fontSize=12;fontColor=#333333;" vertex="1" parent="9zR-uWNmfOv_NjAGNr8q-0">
          <mxGeometry x="600" y="680" width="20" height="20" as="geometry" />
        </mxCell>
        <UserObject label="Processes" id="PB51dKFTZky7eTfzRtoL-15">
          <mxCell style="strokeColor=#bac8d3;html=1;fontColor=#2f5b7c;fontSize=12;align=left;horizontal=0;fontStyle=2" vertex="1" parent="9zR-uWNmfOv_NjAGNr8q-0">
            <mxGeometry x="580" y="180" width="20" height="100" as="geometry" />
          </mxCell>
        </UserObject>
        <mxCell id="0CaN5ssnme8qHOvcmV8C-0" value="Title/Diagram" parent="1ndiHduiQBtdsoUAymeR-0" />
        <mxCell id="0CaN5ssnme8qHOvcmV8C-2" value="&lt;font style=&quot;font-size: 12px&quot;&gt;Diagram: Base&amp;nbsp;&lt;i&gt;System&amp;nbsp;&lt;/i&gt;Logical Module -&amp;nbsp;Qualities - ISO-25010 Qualities Addressed - Security&lt;/font&gt;" style="text;strokeColor=none;fillColor=none;html=1;fontSize=12;fontStyle=2;verticalAlign=middle;align=left;shadow=0;glass=0;comic=0;opacity=30;fontColor=#808080;" vertex="1" parent="0CaN5ssnme8qHOvcmV8C-0">
          <mxGeometry x="120" y="740" width="520" height="20" as="geometry" />
        </mxCell>
        <mxCell id="1ndiHduiQBtdsoUAymeR-1" value="Title/Page" visible="0" parent="1ndiHduiQBtdsoUAymeR-0" />
        <mxCell id="GT6Gb3UrStUG5ULVGOFr-0" value="" style="group;fontSize=10;" vertex="1" connectable="0" parent="1ndiHduiQBtdsoUAymeR-1">
          <mxGeometry x="120" y="120" width="560" height="45" as="geometry" />
        </mxCell>
        <mxCell id="GT6Gb3UrStUG5ULVGOFr-1" value="&lt;font style=&quot;font-size: 12px&quot;&gt;Base Logical Module -&amp;nbsp;Qualities - ISO-25010 Qualities Addressed - Security&lt;/font&gt;" style="text;strokeColor=none;fillColor=none;html=1;fontSize=24;fontStyle=1;verticalAlign=middle;align=left;shadow=0;glass=0;comic=0;opacity=30;fontColor=#808080;" vertex="1" parent="GT6Gb3UrStUG5ULVGOFr-0">
          <mxGeometry width="560" height="40" as="geometry" />
        </mxCell>
        <mxCell id="GT6Gb3UrStUG5ULVGOFr-2" value="" style="line;strokeWidth=2;html=1;shadow=0;glass=0;comic=0;fillColor=none;fontSize=10;fontColor=#CCCCCC;labelBackgroundColor=none;strokeColor=#CCCCCC;" vertex="1" parent="GT6Gb3UrStUG5ULVGOFr-0">
          <mxGeometry y="35" width="560" height="10" as="geometry" />
        </mxCell>
        <mxCell id="GT6Gb3UrStUG5ULVGOFr-3" value="About" parent="1ndiHduiQBtdsoUAymeR-0" />
      </root>
    </mxGraphModel>
  </diagram>
</mxfile>
